<svg xmlns="http://www.w3.org/2000/svg" viewBox="0 0 512 512">
  <defs>
    <linearGradient id="sky" x1="0" y1="0" x2="0" y2="1">
      <stop offset="0" stop-color="#07142e"/>
      <stop offset="1" stop-color="#1b9ed0"/>
    </linearGradient>
    <linearGradient id="gold" x1="0" y1="0" x2="1" y2="1">
      <stop offset="0" stop-color="#ffe980"/>
      <stop offset="1" stop-color="#f4a72e"/>
    </linearGradient>
  </defs>
  <rect width="512" height="512" rx="112" fill="url(#sky)"/>
  <circle cx="386" cy="116" r="48" fill="#fff1ae" opacity=".9"/>
  <g stroke="#172130" stroke-width="15" stroke-linecap="round">
    <path d="M104 94h304"/>
    <path d="M280 94v74"/>
    <path d="M280 94L164 164"/>
    <path d="M280 94l126 70"/>
  </g>
  <g stroke="#f6c744" stroke-width="8" stroke-linecap="round">
    <path d="M104 94h304"/>
    <path d="M280 94v74"/>
    <path d="M280 94L164 164"/>
    <path d="M280 94l126 70"/>
  </g>
  <path d="M280 104v92" stroke="#1a2635" stroke-width="8"/>
  <g>
    <rect x="176" y="288" width="168" height="104" rx="12" fill="#76c8d8" stroke="#173654" stroke-width="9"/>
    <rect x="194" y="312" width="30" height="34" rx="3" fill="#e7fbff" stroke="#173654" stroke-width="6"/>
    <rect x="241" y="312" width="30" height="34" rx="3" fill="#e7fbff" stroke="#173654" stroke-width="6"/>
    <rect x="288" y="312" width="30" height="34" rx="3" fill="#e7fbff" stroke="#173654" stroke-width="6"/>
    <rect x="228" y="359" width="64" height="33" rx="4" fill="#173654"/>
  </g>
  <g transform="rotate(-8 260 244)">
    <path d="M212 204h96l16 18-16 18h-96l-16-18z" fill="url(#gold)" stroke="#57381f" stroke-width="8"/>
    <rect x="226" y="211" width="24" height="23" rx="3" fill="#86e8ff" stroke="#57381f" stroke-width="5"/>
    <rect x="269" y="211" width="24" height="23" rx="3" fill="#86e8ff" stroke="#57381f" stroke-width="5"/>
  </g>
  <path d="M238 204l42-8 37 13" stroke="#1a2635" stroke-width="7" fill="none"/>
  <path d="M64 412h384" stroke="#061022" stroke-width="36" stroke-linecap="round"/>
</svg>
